<?xml version="1.0" encoding="utf-8"?>
<!-- Generator: Adobe Illustrator 15.1.0, SVG Export Plug-In . SVG Version: 6.00 Build 0)  -->
<!DOCTYPE svg PUBLIC "-//W3C//DTD SVG 1.1//EN" "http://www.w3.org/Graphics/SVG/1.1/DTD/svg11.dtd">
<svg version="1.1" id="Layer_4" xmlns="http://www.w3.org/2000/svg" xmlns:xlink="http://www.w3.org/1999/xlink" x="0px" y="0px"
	 width="393.736px" height="393.736px" viewBox="0 0 393.736 393.736" enable-background="new 0 0 393.736 393.736"
	 xml:space="preserve">
<circle fill="#FFFFFF" cx="196.867" cy="196.868" r="181.653"/>
<path d="M196.867,8.215C92.677,8.215,8.214,92.677,8.214,196.867c0,104.192,84.462,188.654,188.653,188.654
	c104.192,0,188.654-84.462,188.654-188.654C385.521,92.677,301.06,8.215,196.867,8.215z M196.867,371.421
	c-96.248,0-174.553-78.305-174.553-174.554c0-96.248,78.305-174.552,174.553-174.552c96.249,0,174.554,78.304,174.554,174.552
	C371.421,293.116,293.116,371.421,196.867,371.421z"/>
<path d="M196.867,36.749c-88.29,0-160.119,71.828-160.119,160.118c0,88.291,71.829,160.12,160.119,160.12
	c88.291,0,160.12-71.829,160.12-160.12C356.987,108.577,285.158,36.749,196.867,36.749z M142.98,297.802l-0.237-0.976
	L98.702,116.337h52.047l31.759,145.665L142.98,297.802z M166.626,116.337h61.898l-31.256,102.854L166.626,116.337z M252.165,297.802
	l-39.524-35.8l0.074-0.339l31.681-145.326h52.054l-0.182,0.739L252.165,297.802z"/>
</svg>
